<?xml version="1.0" encoding="UTF-8" standalone="no"?>
<!-- Created with Inkscape (http://www.inkscape.org/) -->

<svg
   width="64"
   height="64"
   viewBox="0 0 16.933333 16.933333"
   version="1.1"
   id="svg1"
   inkscape:version="1.3.2 (091e20e, 2023-11-25, custom)"
   sodipodi:docname="BackButton.svg"
   xmlns:inkscape="http://www.inkscape.org/namespaces/inkscape"
   xmlns:sodipodi="http://sodipodi.sourceforge.net/DTD/sodipodi-0.dtd"
   xmlns="http://www.w3.org/2000/svg"
   xmlns:svg="http://www.w3.org/2000/svg">
  <sodipodi:namedview
     id="namedview1"
     pagecolor="#ffffff"
     bordercolor="#999999"
     borderopacity="1"
     inkscape:showpageshadow="2"
     inkscape:pageopacity="0"
     inkscape:pagecheckerboard="0"
     inkscape:deskcolor="#d1d1d1"
     inkscape:document-units="mm"
     inkscape:zoom="5.6568543"
     inkscape:cx="53.740115"
     inkscape:cy="27.930718"
     inkscape:window-width="1440"
     inkscape:window-height="830"
     inkscape:window-x="-6"
     inkscape:window-y="-6"
     inkscape:window-maximized="1"
     inkscape:current-layer="layer1" />
  <defs
     id="defs1" />
  <g
     inkscape:label="Livello 1"
     inkscape:groupmode="layer"
     id="layer1">
    <path
       id="rect1"
       style="fill:#ffffff;fill-opacity:1;stroke:#000000;stroke-width:2;stroke-linecap:round;stroke-linejoin:round;stroke-miterlimit:20;stroke-dasharray:none;stroke-dashoffset:111.874;stroke-opacity:1;paint-order:stroke fill markers"
       d="M 4.3538934,3.5441502 C 3.5882154,3.6112191 1.8041107,5.7326811 1.878979,6.112762 1.9716824,6.5833738 4.9360638,9.8540157 4.6319187,7.5248222 h 5.1676269 7.003e-4 1.0196591 a 1.5279368,1.5670858 0 0 1 1.322896,0.7828965 1.5279368,1.5670858 0 0 1 0,1.567216 1.5279368,1.5670858 0 0 1 -1.319394,0.7836083 v -0.0021 H 9.8002459 9.7995456 6.7692811 v 2.73302 h 3.0302645 7.003e-4 1.0196591 v 0.0014 a 4.2532855,4.4231559 0 0 0 3.683659,-2.212039 4.2532855,4.4231559 0 0 0 0,-4.4226526 4.2532855,4.4231559 0 0 0 -3.673155,-2.2113483 v -0.00142 H 9.8002459 9.7995456 4.6319187 c 0.1404597,-0.6941468 0.032518,-0.975364 -0.2072934,-0.9992604 -0.022483,-0.00224 -0.046032,-0.00216 -0.070732,0 z" />
  </g>
</svg>
